REM DIRINDEX 1\2\6,1\2\7,1\2\8,1\2\9,1\3\10,1\3\11,1\4\12,1\4\13,1\4\14,1\5\15,1\5\16,1\5\17
REM DIRNAME cjc029,folder01,folder02,folder03,folder04,folder05,folder06,folder07,folder08,folder09,folder10,folder11,folder12,folder13,folder14,folder15,folder16
TITLE ""
FILE "1400_2_sec12_1184_1200.mp3" MP3
  TRACK 01 AUDIO
    TITLE "0:"
    INDEX 01 00:00:00
  TRACK 02 AUDIO
    TITLE "13:cjc029_3983"
    INDEX 01 00:00:21
  TRACK 03 AUDIO
    TITLE "0:"
    INDEX 01 00:01:30
  TRACK 04 AUDIO
    TITLE "14:cjc029_3984"
    INDEX 01 00:01:34
  TRACK 05 AUDIO
    TITLE "0:"
    INDEX 01 00:03:66
  TRACK 06 AUDIO
    TITLE "13:cjc029_3985"
    INDEX 01 00:04:46
  TRACK 07 AUDIO
    TITLE "0:"
    INDEX 01 00:05:73
  TRACK 08 AUDIO
    TITLE "14:cjc029_3986"
    INDEX 01 00:06:06
  TRACK 09 AUDIO
    TITLE "0:"
    INDEX 01 00:08:07
  TRACK 10 AUDIO
    TITLE "13:cjc029_3987"
    INDEX 01 00:08:62
  TRACK 11 AUDIO
    TITLE "0:"
    INDEX 01 00:10:16
  TRACK 12 AUDIO
    TITLE "14:cjc029_3988"
    INDEX 01 00:10:21
  TRACK 13 AUDIO
    TITLE "0:"
    INDEX 01 00:13:06
  TRACK 14 AUDIO
    TITLE "13:cjc029_3989"
    INDEX 01 00:13:65
  TRACK 15 AUDIO
    TITLE "0:"
    INDEX 01 00:15:09
  TRACK 16 AUDIO
    TITLE "14:cjc029_3990"
    INDEX 01 00:15:15
  TRACK 17 AUDIO
    TITLE "0:"
    INDEX 01 00:18:03
  TRACK 18 AUDIO
    TITLE "13:cjc029_3991"
    INDEX 01 00:18:58
  TRACK 19 AUDIO
    TITLE "0:"
    INDEX 01 00:20:00
  TRACK 20 AUDIO
    TITLE "14:cjc029_3992"
    INDEX 01 00:20:10
  TRACK 21 AUDIO
    TITLE "0:"
    INDEX 01 00:24:72
  TRACK 22 AUDIO
    TITLE "13:cjc029_3993"
    INDEX 01 00:25:52
  TRACK 23 AUDIO
    TITLE "0:"
    INDEX 01 00:26:64
  TRACK 24 AUDIO
    TITLE "14:cjc029_3994"
    INDEX 01 00:26:71
  TRACK 25 AUDIO
    TITLE "0:"
    INDEX 01 00:29:72
  TRACK 26 AUDIO
    TITLE "13:cjc029_3995"
    INDEX 01 00:30:55
  TRACK 27 AUDIO
    TITLE "0:"
    INDEX 01 00:31:69
  TRACK 28 AUDIO
    TITLE "14:cjc029_3996"
    INDEX 01 00:32:01
  TRACK 29 AUDIO
    TITLE "0:"
    INDEX 01 00:35:55
  TRACK 30 AUDIO
    TITLE "13:cjc029_3997"
    INDEX 01 00:36:42
  TRACK 31 AUDIO
    TITLE "0:"
    INDEX 01 00:37:61
  TRACK 32 AUDIO
    TITLE "14:cjc029_3998"
    INDEX 01 00:37:65
  TRACK 33 AUDIO
    TITLE "0:"
    INDEX 01 00:40:42
  TRACK 34 AUDIO
    TITLE "13:cjc029_3999"
    INDEX 01 00:41:28
  TRACK 35 AUDIO
    TITLE "0:"
    INDEX 01 00:42:61
  TRACK 36 AUDIO
    TITLE "14:cjc029_4000"
    INDEX 01 00:42:65
  TRACK 37 AUDIO
    TITLE "0:"
    INDEX 01 00:46:33
  TRACK 38 AUDIO
    TITLE "13:cjc029_4001"
    INDEX 01 00:47:15
  TRACK 39 AUDIO
    TITLE "0:"
    INDEX 01 00:48:51
  TRACK 40 AUDIO
    TITLE "14:cjc029_4002"
    INDEX 01 00:48:61
  TRACK 41 AUDIO
    TITLE "0:"
    INDEX 01 00:49:72
  TRACK 42 AUDIO
    TITLE "13:cjc029_4003"
    INDEX 01 00:50:54
  TRACK 43 AUDIO
    TITLE "0:"
    INDEX 01 00:52:00
  TRACK 44 AUDIO
    TITLE "14:cjc029_4004"
    INDEX 01 00:52:04
  TRACK 45 AUDIO
    TITLE "0:"
    INDEX 01 00:55:30
  TRACK 46 AUDIO
    TITLE "13:cjc029_4005"
    INDEX 01 00:56:14
  TRACK 47 AUDIO
    TITLE "0:"
    INDEX 01 00:57:39
  TRACK 48 AUDIO
    TITLE "14:cjc029_4006"
    INDEX 01 00:57:45
  TRACK 49 AUDIO
    TITLE "0:"
    INDEX 01 01:01:31
  TRACK 50 AUDIO
    TITLE "13:cjc029_4007"
    INDEX 01 01:02:14
  TRACK 51 AUDIO
    TITLE "0:"
    INDEX 01 01:03:33
  TRACK 52 AUDIO
    TITLE "14:cjc029_4008"
    INDEX 01 01:03:37
  TRACK 53 AUDIO
    TITLE "0:"
    INDEX 01 01:07:43
  TRACK 54 AUDIO
    TITLE "13:cjc029_4009"
    INDEX 01 01:08:23
  TRACK 55 AUDIO
    TITLE "0:"
    INDEX 01 01:09:46
  TRACK 56 AUDIO
    TITLE "14:cjc029_4010"
    INDEX 01 01:09:50
  TRACK 57 AUDIO
    TITLE "0:"
    INDEX 01 01:11:66
  TRACK 58 AUDIO
    TITLE "13:cjc029_4011"
    INDEX 01 01:12:50
  TRACK 59 AUDIO
    TITLE "0:"
    INDEX 01 01:14:00
  TRACK 60 AUDIO
    TITLE "14:cjc029_4012"
    INDEX 01 01:14:04
  TRACK 61 AUDIO
    TITLE "0:"
    INDEX 01 01:15:42
  TRACK 62 AUDIO
    TITLE "13:cjc029_4013"
    INDEX 01 01:16:26
  TRACK 63 AUDIO
    TITLE "0:"
    INDEX 01 01:17:39
  TRACK 64 AUDIO
    TITLE "14:cjc029_4014"
    INDEX 01 01:17:43
  TRACK 65 AUDIO
    TITLE "0:"
    INDEX 01 01:21:72
  TRACK 66 AUDIO
    TITLE "13:cjc029_4015"
    INDEX 01 01:22:54
  TRACK 67 AUDIO
    TITLE "0:"
    INDEX 01 01:23:46
  TRACK 68 AUDIO
    TITLE "14:cjc029_4016"
    INDEX 01 01:23:63
  TRACK 69 AUDIO
    TITLE "0:"
    INDEX 01 01:27:06
